<svg preserveAspectRatio="none" overflow="visible" style="display: block;" width="37.3688" height="14.6683" viewBox="0 0 37.3688 14.6683" fill="none" xmlns="http://www.w3.org/2000/svg">
<path id="Line 22" d="M8.53373 5.49445L7.82816 6.20309L8.53373 5.49445ZM14.8688 10.8838L14.8132 9.88536V9.88536L14.8688 10.8838ZM21.8688 5.49437L21.8249 6.49341V6.49341L21.8688 5.49437ZM28.3688 6.96382L28.5332 5.97742V5.97742L28.3688 6.96382ZM37.0042 8.72204C37.4306 8.37113 37.4919 7.74094 37.141 7.31446L31.4226 0.364651C31.0717 -0.0618243 30.4415 -0.123083 30.015 0.227827C29.5885 0.578736 29.5273 1.20893 29.8782 1.63541L34.9612 7.81302L28.7836 12.896C28.3571 13.2469 28.2959 13.8771 28.6468 14.3036C28.9977 14.7301 29.6279 14.7914 30.0543 14.4404L37.0042 8.72204ZM0.368781 5.49445C0.738051 6.42377 0.737855 6.42385 0.737681 6.42392C0.737652 6.42393 0.7375 6.42399 0.737442 6.42401C0.737327 6.42406 0.7373 6.42407 0.737359 6.42404C0.737477 6.424 0.737943 6.42381 0.738751 6.4235C0.740368 6.42286 0.743356 6.42169 0.747679 6.42001C0.756327 6.41665 0.770309 6.41126 0.789344 6.40404C0.827424 6.38961 0.88565 6.3679 0.961765 6.3406C1.11413 6.28594 1.33738 6.20912 1.61355 6.12338C2.16846 5.95109 2.92447 5.7467 3.74126 5.61141C4.56457 5.47505 5.40811 5.41606 6.15206 5.50852C6.89859 5.6013 7.4582 5.83473 7.82816 6.20309L8.53373 5.49445L9.23929 4.7858C8.44474 3.9947 7.40147 3.64841 6.39872 3.52379C5.3934 3.39885 4.34126 3.48479 3.41446 3.63829C2.48115 3.79287 1.63262 4.02328 1.02052 4.21332C0.71318 4.30874 0.4623 4.39498 0.286418 4.45807C0.198408 4.48965 0.128978 4.5155 0.0804346 4.5339C0.0561569 4.5431 0.0370849 4.55045 0.0235063 4.55572C0.0167164 4.55836 0.0112981 4.56048 0.00728741 4.56206C0.00528201 4.56284 0.00362828 4.5635 0.00233072 4.56401C0.00168192 4.56426 0.00112218 4.56449 0.000651985 4.56467C0.000417084 4.56477 0.000131369 4.56488 1.39773e-05 4.56493C-0.00024876 4.56503 -0.000489295 4.56513 0.368781 5.49445ZM8.53373 5.49445L7.82816 6.20309C8.33567 6.70839 8.80181 7.28804 9.27813 7.90493C9.74108 8.5045 10.2306 9.16267 10.7355 9.73835C11.7442 10.8883 13.0472 11.9868 14.9244 11.8823L14.8688 10.8838L14.8132 9.88536C13.8931 9.93658 13.142 9.4489 12.2391 8.41954C11.7883 7.90556 11.3577 7.32576 10.8612 6.68264C10.378 6.05684 9.84519 5.38907 9.23929 4.7858L8.53373 5.49445ZM14.8688 10.8838L14.9244 11.8823C15.9759 11.8237 16.8067 11.295 17.4613 10.6893C18.1041 10.0945 18.6709 9.33469 19.1645 8.68548C19.6874 7.99775 20.1359 7.42337 20.6074 7.01748C21.06 6.6278 21.4395 6.47648 21.8249 6.49341L21.8688 5.49437L21.9127 4.49534C20.8403 4.44823 19.9803 4.91829 19.3025 5.50178C18.6436 6.06905 18.0708 6.8196 17.5725 7.47496C17.0449 8.16884 16.5905 8.77025 16.1031 9.22125C15.6275 9.66123 15.219 9.86277 14.8132 9.88536L14.8688 10.8838ZM21.8688 5.49437L21.8249 6.49341C23.2383 6.5555 23.9907 6.76916 24.7789 7.03297C25.6161 7.31319 26.5541 7.67517 28.2044 7.95021L28.3688 6.96382L28.5332 5.97742C27.0673 5.73312 26.2834 5.42749 25.4137 5.13639C24.4949 4.82888 23.5554 4.56749 21.9127 4.49534L21.8688 5.49437ZM28.3688 6.96382L28.2044 7.95021C29.7319 8.2048 31.7539 8.45371 33.3813 8.63798C34.1977 8.73042 34.9197 8.80715 35.4377 8.86077C35.6967 8.88759 35.9049 8.90865 36.0485 8.92301C36.1203 8.9302 36.176 8.93571 36.2138 8.93944C36.2327 8.9413 36.2472 8.94272 36.2569 8.94368C36.2618 8.94416 36.2655 8.94452 36.2681 8.94477C36.2693 8.94489 36.2703 8.94498 36.271 8.94505C36.2713 8.94508 36.2715 8.9451 36.2717 8.94512C36.2718 8.94513 36.2719 8.94514 36.2719 8.94514C36.272 8.94515 36.272 8.94515 36.3688 7.94984C36.4655 6.95453 36.4655 6.95453 36.4655 6.95453C36.4655 6.95453 36.4654 6.95453 36.4654 6.95452C36.4653 6.95451 36.4651 6.95449 36.4648 6.95446C36.4642 6.95441 36.4634 6.95432 36.4622 6.95421C36.4599 6.95399 36.4564 6.95364 36.4518 6.95319C36.4424 6.95228 36.4284 6.9509 36.41 6.94908C36.3731 6.94545 36.3184 6.94003 36.2476 6.93295C36.1061 6.91879 35.9002 6.89796 35.6436 6.8714C35.1304 6.81827 34.4149 6.74224 33.6063 6.65068C31.9837 6.46694 30.0057 6.22284 28.5332 5.97742L28.3688 6.96382Z" fill="white"/>
</svg>
